<svg width="24" height="24" viewBox="0 0 24 24" xmlns="http://www.w3.org/2000/svg">
  <path fill="#DAA520" d="M17.05 12.536c-.03-2.866 2.34-4.243 2.447-4.315-1.332-1.948-3.406-2.215-4.142-2.247-1.766-.18-3.443 1.039-4.34 1.039-.894 0-2.278-1.014-3.745-0.986-1.927.027-3.7 1.118-4.688 2.841-1.999 3.468-.512 8.604 1.435 11.417.954 1.376 2.088 2.923 3.579 2.87 1.435-.059 1.977-.928 3.71-.928 1.734 0 2.222.928 3.736.899 1.541-.029 2.518-1.4 3.458-2.783 1.09-1.59 1.539-3.127 1.567-3.205-.035-.014-3.002-1.15-3.031-4.562M14.094 3.765C14.875 2.79 15.403 1.436 15.267 0c-1.222.048-2.7.814-3.576 1.85-.786.907-1.474 2.356-1.29 3.75 1.364.107 2.757-.699 3.694-1.832"></path>
</svg> 