<svg width="40" height="40" viewBox="0 0 40 40" xmlns="http://www.w3.org/2000/svg">
  <rect width="40" height="40" rx="8" fill="#000" opacity="0.5"/>
  <path fill="#DAA520" d="M10 10h20v20H10z" opacity="0.2"/>
  <path fill="#DAA520" d="M32 16H8c-1.1 0-2 .9-2 2v10c0 1.1.9 2 2 2h24c1.1 0 2-.9 2-2V18c0-1.1-.9-2-2-2zm0 12H8V18h24v10z"/>
  <path fill="#DAA520" d="M15 28l4-16h2l4 16h-2l-1-4h-4l-1 4h-2zm3.5-6h3l-1.5-6-1.5 6z"/>
  <path fill="#DAA520" d="M30 24c-1.1 0-2-.9-2-2s.9-2 2-2 2 .9 2 2-.9 2-2 2z"/>
</svg> 