<svg width="40" height="40" viewBox="0 0 40 40" xmlns="http://www.w3.org/2000/svg">
  <rect width="40" height="40" rx="8" fill="#000" opacity="0.5"/>
  <circle cx="20" cy="16" r="5" fill="#DAA520"/>
  <path fill="#DAA520" d="M10 30c0-5.5 4.5-10 10-10s10 4.5 10 10H10z"/>
  <circle cx="10" cy="16" r="3" fill="#DAA520"/>
  <path fill="#DAA520" d="M4 26c0-3.3 2.7-6 6-6 1 0 2 .3 2.8.7-1.7 1.7-2.8 4-2.8 6.6V30H4v-4z"/>
  <circle cx="30" cy="16" r="3" fill="#DAA520"/>
  <path fill="#DAA520" d="M36 26c0-3.3-2.7-6-6-6-1 0-2 .3-2.8.7 1.7 1.7 2.8 4 2.8 6.6V30h6v-4z"/>
</svg> 