<svg width="1200" height="800" xmlns="http://www.w3.org/2000/svg">
  <defs>
    <linearGradient id="grad1" x1="0%" y1="0%" x2="100%" y2="100%">
      <stop offset="0%" style="stop-color:#000;stop-opacity:1" />
      <stop offset="100%" style="stop-color:#111;stop-opacity:1" />
    </linearGradient>
  </defs>
  <rect width="100%" height="100%" fill="url(#grad1)"/>
  
  <!-- 龙的轮廓 - 仅用低透明度显示 -->
  <path d="M900 200c-30-40-100-70-180-70-40 0-80 10-115 25-20-50-50-90-80-120-60-60-120-60-150-30s-30 90 30 150c30 30 65 60 100 80-50 60-80 140-80 140s130-40 220-40c60 0 110 10 150 30 40 20 65 45 75 70 10 25 5 55-15 85-20 30-55 60-105 80-100 40-250 50-400-10 0 0-35 30-40 50 210 100 400 60 520-30 60-45 100-105 100-170 0-50-30-95-80-120-20-10-40-15-65-15-60 0-125 35-125 35s-30-60-65-95c55-15 95-20 130-20 70 0 130 25 170 65 40 40 65 95 65 155 0 120-95 220-220 220-30 0-60-5-85-15" 
        fill="#DAA520" opacity="0.05" transform="translate(100, 100) scale(0.8)"/>
  
  <!-- 龙的眼睛 -->
  <circle cx="320" cy="300" r="15" fill="#DAA520" opacity="0.2"/>
  
  <!-- 一些装饰性的图案，代表龙的鳞片或能量 -->
  <g opacity="0.03">
    <circle cx="600" cy="400" r="200" fill="#DAA520"/>
    <circle cx="300" cy="600" r="150" fill="#DAA520"/>
    <circle cx="900" cy="200" r="120" fill="#DAA520"/>
    <circle cx="800" cy="600" r="180" fill="#DAA520"/>
    <circle cx="200" cy="200" r="100" fill="#DAA520"/>
  </g>
  
  <!-- 龙的能量线条 -->
  <g stroke="#DAA520" stroke-width="1" opacity="0.07" fill="none">
    <path d="M200 100 Q 400 150, 600 50 Q 800 0, 1000 100"/>
    <path d="M100 300 Q 300 250, 500 350 Q 700 450, 900 400"/>
    <path d="M150 500 Q 350 550, 550 450 Q 750 350, 950 500"/>
    <path d="M250 700 Q 450 650, 650 750 Q 850 800, 1050 700"/>
  </g>
</svg> 