<svg width="150" height="150" viewBox="0 0 150 150" xmlns="http://www.w3.org/2000/svg">
  <g fill="#DAA520" opacity="0.9">
    <path d="M75 15c-33.1 0-60 26.9-60 60s26.9 60 60 60 60-26.9 60-60-26.9-60-60-60zm0 110c-27.6 0-50-22.4-50-50s22.4-50 50-50 50 22.4 50 50-22.4 50-50 50z"/>
    <path d="M120 70c-5.7-8.3-18.9-10.2-26-10-1.7-7.5-8.1-16.2-13-21-10.4-10.4-20.3-8.3-24-3s-2.1 15 8.3 21.3c-10.3 11.2-15.3 27-15.3 27s20.8-5.7 34.8-5.7c16.2 0 24.8 9.3 22.3 17.6-2.5 8.3-15.7 14.8-40.8 10.2 0 0-5.7 6.3-6 9.1 35.3 7.3 57.2-6.3 57.2-22.5 0-8.6-2.4-15.1-6.5-20.1M81.2 57.2c-3.8 0-6.9-3.1-6.9-6.9s3.1-6.9 6.9-6.9 6.9 3.1 6.9 6.9-3.1 6.9-6.9 6.9z"/>
  </g>
</svg> 