<svg width="100" height="100" viewBox="0 0 100 100" xmlns="http://www.w3.org/2000/svg">
  <rect width="100" height="100" fill="black" />
  <path d="M50 20C31.2 20 16 35.2 16 54s15.2 34 34 34 34-15.2 34-34S68.8 20 50 20zm0 62c-15.5 0-28-12.5-28-28s12.5-28 28-28 28 12.5 28 28-12.5 28-28 28z" fill="#DAA520"/>
  <path d="M69.5 45.7c-.8-1.3-2.4-2.3-4.8-2.9-2.2-.6-4.8-.6-7.5-.2-1.5-3.1-3.5-5.8-5.5-7.8-4.2-4.2-8.2-4.2-10.1-2.3-1.9 1.9-1.9 5.8 2.3 10.1.8.8 1.7 1.6 2.7 2.3-3.7 3.3-6.4 8.3-6.4 8.3s9.5-2.6 15.9-2.6c3.9 0 7.2.7 9.7 1.8 2.5 1.1 4.2 2.5 4.9 4 .7 1.5.5 3.1-.6 4.7-1.1 1.6-3.1 3.1-5.9 4.3-5.6 2.4-14 3.1-23.5-.2 0 0-1.8 1.5-2.2 2.8 12.1 5.6 23.3 3.7 30-1.3 3.3-2.5 5.5-5.7 5.5-9.2 0-2.7-1.5-5-4.5-6.8z" fill="#DAA520"/>
</svg> 